<?xml version="1.0" encoding="utf-8"?>
<!-- Generator: Adobe Illustrator 27.5.0, SVG Export Plug-In . SVG Version: 6.00 Build 0)  -->
<svg version="1.1" id="_x3C_Layer_x3E_" xmlns="http://www.w3.org/2000/svg" xmlns:xlink="http://www.w3.org/1999/xlink" x="0px"
	 y="0px" viewBox="0 0 3000 2000" style="enable-background:new 0 0 3000 2000;" xml:space="preserve">
<rect style="fill:#FFFFFF;" width="3000" height="2000"/>
<g>
	<g style="opacity:0.7;">
		<path style="fill:#D4E4FF;" d="M2511.16,1613.427c-5.481,123.816-65.502,225.771-193.476,259.269
			c-95.009,24.844-222.612,14.83-378.116-21.336c-179.866-42.076-393.725-14.595-583.63,12.207
			c-168.533,22.918-368.369,57.347-527.569,31.913c-47.616-11.64-157.641-20.127-253.338-143.738
			c-65.672-84.839-88.431-178.792-90.803-280.904c-1.702-73.037,7.02-150.256,17.921-231.284
			c22.569-167.795,54.446-351.939,22.317-549.299C451.907,244.468,700.705,68.229,1011.724,140.8
			c311.006,72.57,837.712-15.813,837.712-15.813c397.712-65.479,527.113,43.844,568.058,247.205
			c46.577,231.289-21.232,584.369,61.155,940.087C2500.163,1404.951,2518.86,1518.999,2511.16,1613.427z"/>
	</g>
	<g style="opacity:0.5;">
		<path style="fill:#EEF3FF;" d="M2439.713,1029.59c-2.695-2.353-4.648-4.055-5.077-4.418
			c-66.604-56.998-123.96-72.895-170.368-69.492c-86.096,6.289-134.552,78.943-134.552,78.943
			c-38.841-22.289-109.647-39.587-180.216-36.009c-104.325,5.231-168.035,66.924-182.481,123.841
			c-2.587,0.108-5.091,0.275-7.522,0.527c-78.705,7.906-75.889,88.012-75.889,88.012c-71.876-3.282-128.897,6.157-174.119,22.952
			c-87.725,32.56-131.078,92.743-152.389,141.296c-18.245,41.484-20.388,74.464-20.388,74.464
			c-65.982-32.337-176.846,29.88-234.292,75.158c-35.264-66.058-82.525-76.384-140.374-41.077c-0.552,0.323-0.839,0.503-0.839,0.503
			c3.565-110.707-207.462-247.777-370.807-156.294c-24.653-38.239-59.179-69.924-88.159-89.13c-0.031,0.229-0.062,0.458-0.093,0.687
			c-10.901,81.028-19.622,158.247-17.921,231.284c2.372,102.112,25.131,196.065,90.803,280.904c0.636,0.821,1.276,1.618,1.914,2.431
			c112.758,32.226,274.141,46.888,450.172,33.877c2.193-0.155,4.373-0.324,6.553-0.479c119.097-8.745,227.642-15.37,325.586-20.329
			c40.874-2.062,79.901-3.846,117.086-5.367c0.911-0.035,1.82-0.083,2.718-0.107c55.021-2.251,105.993-3.941,152.879-5.175
			c165.688-4.408,280.699-3.414,345.328-1.845c35.434,0.852,70.883,4.12,105.753,10.099c54.099,9.26,106.053,16.088,155.587,20.783
			c8.541,0.719,17.083,1.57,25.48,2.145c26.57,2.09,105.759,5.487,181.42,8.158c41.463-47.822,62.513-111.572,65.652-182.505
			c7.7-94.428-10.997-208.476-32.511-301.147C2456.604,1217.099,2445.318,1122.109,2439.713,1029.59z"/>
	</g>
	<path style="fill:#F5F8FF;" d="M828.369,1895.479c159.2,25.434,359.036-8.995,527.569-31.913
		c189.906-26.802,403.764-54.283,583.63-12.207c155.504,36.166,283.107,46.18,378.116,21.336
		c127.974-33.497,187.994-135.452,193.476-259.269c7.7-94.428-10.997-208.476-32.511-301.147
		c-14.687-63.413-24.583-126.738-31.223-189.309c-0.029-0.196-0.071-0.389-0.093-0.587c-21.394,10.565-41.615,23.635-60.435,38.021
		c-21.216,16.232-40.646,34.142-57.932,52.015c-0.012,0.012-0.024,0.023-0.036,0.036c-28.678,29.648-51.475,59.201-66.809,80.849
		c-14.34,20.244-22.162,33.565-22.162,33.565c-74.977-55.943-127.519-31.218-152.963-10.41c-11.5,9.403-17.466,18.017-17.466,18.017
		c-57.933-51.199-106.94-61.957-145.177-56.016c-28.428,4.409-50.9,18.053-66.666,31.171c-17.417,14.47-26.629,28.295-26.629,28.295
		s-55.381-31.804-138.229-27.648c-82.43,4.12-118.128,49.343-132.06,75.901c-5.918,11.248-7.919,19.143-7.919,19.143
		c-66.353,2.576-64.041,67.863-64.041,67.863c-11.38-0.516-22.27-0.623-32.691-0.336c-31.147,0.826-58.148,5.031-81.556,11.668
		c-18.149,5.139-34.142,11.728-48.217,19.334c-31.445,16.951-53.404,38.922-68.713,60.867
		c-31.985,45.857-34.956,91.642-34.956,91.642c-52.877-25.97-137.116,27.229-167.926,48.948c-7.462,5.246-11.788,8.66-11.788,8.66
		s-17.287-32.26-43.784-43.783c-26.509-11.514-64.52,12.674-64.52,12.674s2.311-71.434-97.931-119.817
		c-100.219-48.396-186.625,0-186.625,0c-52.746-82.046-122.261-94.217-165.878-92.205c2.372,102.112,25.131,196.065,90.803,280.904
		C670.728,1875.353,780.753,1883.84,828.369,1895.479z"/>
	<g>
		<g>
			<path style="fill:#F77D48;" d="M1138.932,1474.767c-5.391,44.659-17.25,107.503-43.184,153.312
				c-30.308,53.487-48.732,100.913-56.339,144.961c-7.991,46.252-3.702,89.03,12.71,127.592c-1.27,0.096-2.552,0.191-3.821,0.275
				c-1.259,0.084-2.516,0.18-3.773,0.252c-16.161-39.232-20.27-82.586-12.195-129.341c7.75-44.875,26.451-93.056,57.153-147.285
				c14.004-24.714,32.704-70.894,42.312-150.628c5.773-47.798,5.498-85.377,5.486-85.748l7.187-0.072
				C1144.478,1388.468,1144.754,1426.502,1138.932,1474.767z"/>
		</g>
	</g>
	<g>
		<path style="fill:#F8FCFF;" d="M591.877,462.022c0,0,22.749-48.732,77.146-43.317c0,0,78.974-81.224,163.19-10.83
			c0,0,89.521-17.442,155.819,15.102c44.202,21.698,58.802,44.459,58.802,44.459L591.877,462.022z"/>
	</g>
	<g>
		<path style="fill:#F8FCFF;" d="M1782.879,274.327c0,0,13.109-28.084,44.459-24.964c0,0,45.514-46.81,94.049-6.241
			c0,0,51.592-10.052,89.801,8.703c25.474,12.505,33.887,25.623,33.887,25.623L1782.879,274.327z"/>
	</g>
	<g>
		<path style="fill:#F8FCFF;" d="M704.08,679.938c0,0,54.281-90.989,184.084-80.878c0,0,188.449-151.654,389.406-20.22
			c0,0,213.615-32.567,371.814,28.198c105.476,40.513,140.314,83.011,140.314,83.011L704.08,679.938z"/>
	</g>
	<path style="fill:#99AAF2;" d="M1511.656,1624.963c-12.59,46.097-24.761,92.947-32.596,136.804
		c-0.131,0.767-0.263,1.534-0.407,2.288c-0.731,4.217-1.426,8.397-2.084,12.555v0.012c-2.849,18.131-5.258,47.969-6.361,71.604
		c158.36-19.572,324.833-30.675,469.361,3.134c155.504,36.166,283.107,46.18,378.116,21.336
		c108.704-28.453,168.368-106.304,187.234-204.986l-9.822-37.295v-0.014l-15.49-67.238l-4.731-20.568l-87.976-382.188l-7.811-33.949
		L2264.268,955.68l-11.691-17.395l-119.901-178.348L2010.51,578.224l-1.078-1.605l-9.355-13.919l-40.766-60.629l-2.276-3.377
		l-21.191-31.53l-20.052-0.97l-474.538-23h-0.011l-142.663-6.924h-0.012l-108.742-11.075c0,0,94.403,314.726,120.925,371.556
		c4.181,8.961,10.626,18.4,18.581,28.151c42.514,52.038,128.358,112.629,144.314,153.923
		c13.957,36.128,9.164,143.978,35.843,255.122c9.523,39.664,23.048,79.734,42.873,117.122c4.96,9.368,7.607,21.215,8.41,35.111
		c2.553,44.191-13.561,108.987-32.858,179.678C1522.629,1585.216,1517.106,1605.018,1511.656,1624.963z"/>
	<g>
		<path style="fill:#869CF2;" d="M2478.649,1312.279c-66.246-286.024-35.396-570.324-44.973-790.993
			c-549.395,52.495-310.97,29.708-433.601,41.414l-60.244,5.75c-56.773-3.496-246.644-15.214-319.728-19.708
			c0,0,74.763,355.582,112.653,373.263c37.88,17.682,98.482,20.198,108.594,37.879c2.874,5.031,9.619,28.426,18.387,59.74
			c22.078,78.848,56.974,207.925,75.051,220.575c16.483,11.536,93.187,43.509,152.209,76.26
			c31.422,17.442,57.836,35.1,67.491,50.015c21.802,33.685,187.669,302.477,258.082,416.674c0.874,1.423,8.53,14.51,17.159,29.275
			c51.949-49.135,77.913-119.566,81.43-198.997C2518.86,1518.999,2500.163,1404.951,2478.649,1312.279z"/>
	</g>
	<path style="fill:#6381E0;" d="M2478.649,1312.279c-31.335-135.29-40.935-270.189-43.373-398.161l-26.442-51.626l-3.367-1.246
		l-13.954-5.186l-107.91-40.071l-0.719-0.276h-0.013l-150.196-55.775l-17.153-6.373l-26.512,4.121l-101.369,15.778l0.025,0.023
		c1.533,2.144,100.039,139.331,105.669,159.996c3.114,11.392-3.066,49.846-9.296,82.333c-5.162,26.894-10.363,49.702-10.363,49.702
		l209.615,78.513c0,0,119.184,178.66,119.254,178.767c1.234,1.869,2.312,3.498,3.197,4.84c0,0.012,0.014,0.012,0.014,0.023
		l-14.711,132.204c-0.013,0.036-0.013,0.048-0.013,0.048l83.843,82.682l7.032,6.936l21.479,21.18l-8.289,59.691v0.014l-3.546,25.468
		l13.22,12.611c3.434-17.735,5.552-36.144,6.39-55.066C2518.86,1518.999,2500.163,1404.951,2478.649,1312.279z"/>
	<g>
		<path style="fill:#7087E8;" d="M2437.775,993.294c-2.24-2.037-4.924-4.492-7.966-7.283c-1.246-1.139-2.54-2.336-3.905-3.583
			v-0.012c-41.808-38.441-136.432-126.621-139.38-139.87c-0.67-3.007-1.964-12.781-3.641-26.835h-0.013
			c-7.331-61.43-22.018-204.617-23.755-221.737c-0.048-0.407-0.084-0.742-0.107-1.005l-0.072-0.672l64.389-18.794l33.674,69.935
			c0,0,35.878,178.18,39.4,187.656c0.875,2.348,4.349,13.992,9.067,30.151c9.009,30.823,22.558,78.093,31.339,108.785
			c0,0.012,0,0.012,0,0.012C2437.092,977.769,2437.416,985.519,2437.775,993.294z"/>
	</g>
	<g style="opacity:0.3;">
		<path style="fill:#7087E8;" d="M1458.951,462.913c0,0,26.439,95.303,35.908,110.589c9.471,15.286,88.777,87.256,89.844,98.619
			c1.066,11.363,54.096,130.774,54.096,130.774l-24.191-203.64l-47.777-75.833l17.873-53.226L1458.951,462.913z"/>
	</g>
	<g>
		<path style="fill:#5A79DB;" d="M2287.959,597.203c0,0,38.541,89.941,39.031,94.36c0.49,4.419,45.85,97.163,45.85,97.163
			l-16.318-162.74l-37.881-28.783H2287.959z"/>
	</g>
	<g>
		<polygon style="fill:#5A79DB;" points="1987.635,575.258 2049.784,655.742 2086.789,755.455 2171.447,840.681 2171.447,916.439 
			2429.813,986.013 2286.527,842.553 2258.941,592.304 		"/>
	</g>
	<g>
		<path style="fill:#AEC5FF;" d="M2435.715,650.795c-9.065-0.399-70.726-2.933-78.716-7.356
			c-17.358-9.296-31.158-35.099-69.024-46.229l-0.012-0.012c-10.539-3.096-20.534-4.439-31.362-5.042
			c0,0-181.149-10.144-246.091-13.933c-7.14-0.419-14.339-0.838-21.562-1.258c-78.643-4.643-252.197-15.027-329.768-22.749
			c-6.777-0.677-32.688-3.2-39.076-5.475c-14.938-5.309,22.994-17.099,39.005-22.113c47.916-14.963,116.978-31.925,98.973-36.609
			c-10.745-2.79-84.047-8.912-174.49-16.496c-66.56-5.59-156.49-13.083-231.692-20.496c-78.883-7.775-141.667-15.465-155.659-21.719
			c-3.723-1.682-8.043-4.574-5.798-7.967c2.989-6.114,23.618-12.523,30.224-14.231c65.083-18.63,189.252-31.376,261.292-35.015
			c42.696-2.177,163.159-2.773,206.116-2.983c208.745-0.978,520.091,0.108,729.419,1.078c5.618,27.9,9.572,57.572,12.327,88.814
			c1.726,19.514,2.983,39.652,3.869,60.339c1.426,32.86,1.953,67.133,2.036,102.616
			C2435.751,632.838,2435.739,641.773,2435.715,650.795z"/>
	</g>
	<g>
		<g>
			<path style="fill:#0B0755;" d="M1594.127,357.579c-19.118,0-34.671-15.554-34.671-34.672c0-19.119,15.553-34.673,34.671-34.673
				s34.672,15.554,34.672,34.673C1628.799,342.024,1613.245,357.579,1594.127,357.579z M1594.127,299.598
				c-12.853,0-23.309,10.456-23.309,23.309c0,12.852,10.456,23.308,23.309,23.308s23.309-10.456,23.309-23.308
				C1617.436,310.054,1606.979,299.598,1594.127,299.598z"/>
		</g>
		<g>
			<rect x="1587.543" y="347.796" style="fill:#0B0755;" width="13.167" height="66.922"/>
		</g>
	</g>
	<g>
		<path style="fill:#7087E8;" d="M1959.191,908.816c0,0,4.184,6.149,10.978,16.027c25.457,37.014,87.563,126.377,103.511,140.673
			l209.606,78.524c0,0,103.503,154.869,122.462,183.599s-14.713,132.271-14.713,132.271l-85.021-139.309l-244.771-152.228
			l-93.631-84.113L1959.191,908.816z"/>
	</g>
	<g>
		<polygon style="fill:#7087E8;" points="2049.784,655.742 2086.789,755.455 2171.447,840.681 2171.447,916.439 2110.615,855.834 
			1987.635,773.461 		"/>
	</g>
	<g>
		<path style="fill:#7087E8;" d="M1720.238,583.106l30.304,102.273l70.478,47.349c0,0,18.471,66.289,27.975,70.075
			c9.502,3.789,34.123-109.847,34.123-109.847s-71.236-51.137-75.391-62.5C1803.572,619.091,1720.238,583.106,1720.238,583.106z"/>
	</g>
	<g style="opacity:0.3;">
		<path style="fill:#7087E8;" d="M1272.293,480.064c0,0,42.089,58.925,49.665,69.869c7.577,10.943,21.045,88.388,26.095,98.489
			c5.052,10.102,127.271,112.801,135.608,120.377c8.338,7.576,65.213,111.957,65.213,111.957s-168.302-88.387-180.774-95.122
			c-12.471-6.734-67.188-150.569-67.188-152.73c0-2.16-3.367-74.554-5.893-77.08S1272.293,480.064,1272.293,480.064z"/>
	</g>
	<g>
		<path style="fill:#8CBC80;" d="M1863.151,560.914c0,0-42.01,1.644-41.168,37C1822.825,633.27,1863.151,560.914,1863.151,560.914z"
			/>
	</g>
	<g>
		<path style="fill:#8CBC80;" d="M1670.25,532.708c0,0-40.406-24.415-58.715-17.696
			C1593.227,521.731,1623.529,530.426,1670.25,532.708z"/>
	</g>
	<g>
		<path style="fill:#8CBC80;" d="M1659.518,548.74c0,0-22.098,12.135-11.996,29.182
			C1657.623,594.968,1659.518,548.74,1659.518,548.74z"/>
	</g>
	<g>
		<path style="fill:#8CBC80;" d="M2185.365,573.502c0,0-51.918,25.254-40.977,47.982
			C2155.333,644.213,2185.365,573.502,2185.365,573.502z"/>
	</g>
	<g>
		<path style="fill:#8CBC80;" d="M2151.966,570.135c0,0-49.665,15.151-41.247,25.253
			C2119.137,605.49,2151.966,570.135,2151.966,570.135z"/>
	</g>
	<g>
		<path style="fill:#5A79DB;" d="M1959.191,908.816c0,0,42.515,128.189,55.142,142.661c12.626,14.474,59.347,14.039,59.347,14.039
			L1959.191,908.816z"/>
	</g>
	<g style="opacity:0.3;">
		<path style="fill:#7087E8;" d="M1913.977,1268.451c-3.231-4.051-97.146-227.012-106.25-234.646
			c-9.104-7.634-49.609-39.714-78.438-43.109c-19.472-2.294-61.073-34.229-86.028-54.719c-11.993-9.847-20.142-17.051-20.142-17.051
			l29.079,93.482c0,0,85.087,53.653,88.875,53.111c3.788-0.543,60.607,214.558,76.302,229.449
			c15.695,14.893,170.261,41.513,170.261,41.513S1917.208,1272.5,1913.977,1268.451z"/>
	</g>
	<path style="fill:#7087E8;" d="M2441.74,1059.972c-0.001-0.013,0.018-0.026,0.021-0.04
		c-11.497-154.862-5.725-303.558-6.034-435.573l-77.481,18.769h-0.014l-1.233,0.312l15.837,145.286l18.677,67.335l32.559,117.36
		c0,0,10.259,50.251,10.564,51.751L2441.74,1059.972z"/>
	<g>
		<g>
			<path style="fill:#FFB27D;" d="M1396.033,1734.611l-13.479,20.621l-24.366-8.577c0,0-104.911-168.267-108.937-208.989
				c-1.75-17.711-200.742-48.16-253.922-142.942l167.34-30.765c0,0,142.646,95.329,162.069,136.051
				C1335.098,1521.74,1396.033,1734.611,1396.033,1734.611z"/>
		</g>
		<g>
			<g>
				<path style="fill:#FFB27D;" d="M928.061,1391.334c0,0,0.575,20.222,5.261,30.08c4.685,9.858-8.199,44.857-14.647,42.426
					c-10.374-3.912-1.419-15.295-6.398-28.891c-4.979-13.595-12.643-13.152-8.76-27.247c3.592-13.038,3.316-17.718,3.316-17.718
					L928.061,1391.334z"/>
			</g>
			<g>
				<path style="fill:#FFB27D;" d="M916.824,1402.531c11.61,0.567,11.237-11.197,11.237-11.197s20.015-114.06,22.982-124.176
					s91.017-120.709,91.017-120.709s-31.225-112.737-53.86-93.863c-44.143,36.806-75.36,175.389-82.375,201.168
					c-11.593,42.599,1.01,136.23,1.01,136.23S907.705,1402.084,916.824,1402.531z"/>
			</g>
			<g>
				<path style="fill:#FFB27D;" d="M926.688,1408.775c0,0,15.425,20.585,14.786,22.295c-0.641,1.71-16.931-9.418-16.931-9.418
					L926.688,1408.775z"/>
			</g>
		</g>
		<g>
			<path style="fill:#F77D48;" d="M986.977,1527.59c-3.569,0.001-7.09-0.707-10.513-2.139c-17.649-7.385-22.445-38.96-14.253-93.847
				c5.93-39.744,16.722-78.008,16.831-78.391c0.542-1.91,2.532-3.021,4.438-2.477c1.91,0.541,3.018,2.528,2.477,4.438
				c-0.107,0.378-10.787,38.256-16.646,77.55c-7.415,49.737-3.891,80.313,9.928,86.096c11.858,4.962,22.796-2.584,29.886-9.789
				c21.977-22.329,38.165-73.975,25.727-102.412c-0.795-1.818,0.033-3.938,1.853-4.734c1.818-0.794,3.938,0.035,4.732,1.854
				c13.873,31.719-3.53,86.295-27.188,110.335C1005.471,1522.992,996.075,1527.59,986.977,1527.59z"/>
		</g>
		<g>
			<path style="fill:#EFA470;" d="M1175.552,1357.369c0,0,196.758,4.815,228.866,36.537
				c32.105,31.723,113.915,196.777,113.915,196.777l-30.401,15.257c0,0-122.447-123.388-135.016-151.146
				c-7.339-16.211-110.555,24.017-192.799-47.111L1175.552,1357.369z"/>
		</g>
		<g>
			<path style="fill:#2C3A64;" d="M1358.188,1746.655c0,0,0.623,42.051,7.579,49.076c6.306,6.369,35.346,1.841,111.957-19.439
				c10.782-2.995-0.094-20.656-18.501-19.712c-35.039,1.797-63.189-21.969-63.189-21.969
				C1377.592,1749.361,1358.188,1746.655,1358.188,1746.655z"/>
		</g>
		<g>
			<path style="fill:#FFB27D;" d="M975.412,1033.97c0,0,59.26,46.57,95.144,32.911c0,0-10.46-9.367-23.676-17.921
				c-3.947-2.554-6.093-10.831-5.673-15.507c0.237-2.629,0.361-9.677,0.525-12.003c1.042-15.207-1.585-35.539-1.585-35.539
				l-27.337-4.72l-20.092-14.27c0.78,8.506,1.312,16.458-0.287,23.505C986.35,1017.24,975.412,1033.97,975.412,1033.97z"/>
		</g>
		<g>
			<path style="fill:#ED975D;" d="M997.42,994.334c0,0,7.488,13.143,44.442,13.143c0.187-17.073-2.615-26.285-2.615-26.285h-26.439
				C999.219,985.38,997.42,994.334,997.42,994.334z"/>
		</g>
		<g>
			<path style="fill:#8C9DF4;" d="M1111.919,1236.176c0.827,3.809-130.204,132.311-142.662,104.039
				c-1.845-4.156-3.558-8.134-5.164-11.871c-7.318-17.215-11.894-29.266-11.894-29.266c-1.162-3.558-2.277-7.08-3.318-10.578
				c-2.241-7.451-4.217-14.746-5.955-21.897c-20.677-85.293-6.768-149.478,8.746-188.603c3.51-8.854,7.104-16.424,10.398-22.652
				c7.439-14.076,13.345-21.384,13.345-21.384s30.092,17.935,71.947,14.963c0.084,0.036,19.19,13.597,19.286,13.668
				c2.229,1.749,4.396,3.546,6.518,5.427c3.929,3.51,7.666,7.283,11.309,11.487c4.828,5.631,9.452,12.04,14.027,19.646
				c6.685,11.104,9.859,33.938,11.824,56.363C1111.979,1174.386,1107.773,1216.865,1111.919,1236.176z"/>
		</g>
		<g>
			<g>
				<path style="fill:#FFB27D;" d="M1053.94,989.941c0,0-56.059,24.878-70.968-10.133c-14.908-35.012-32.184-55.381,2.979-72.745
					c35.162-17.364,47.851-6.983,55.68,3.489C1049.461,921.026,1068.139,982.568,1053.94,989.941z"/>
			</g>
			<g>
				<path style="fill:#2B478B;" d="M930.622,939.565c-0.843-0.271-2.261-0.039-4.875,1.364c0,0,1.239-2.51,3.902-4.227
					c-1.646-3.879-3.623-11.316,1.497-16.536c0,0-2.183,3.736-0.295,7.777c2.561-11.556,14.346-26.014,57.982-48.052
					c57.507-29.043,61.136,17.469,56.624,26.027c-4.512,8.559-29.472,7.848-42.05,16.97c-12.576,9.123-3.279,29.981-6.145,35.367
					c-2.865,5.386-3.968-0.377-11.733,0.549c-7.768,0.924-2.127,11.448,3.669,16.992c5.796,5.544,2.788,19.352,2.788,19.352
					s0,0-14.041-4.042c-14.04-4.04-45.752-38.078-46.985-48.701C930.85,941.467,930.731,940.521,930.622,939.565z"/>
			</g>
		</g>
		<g>
			<path style="fill:#8C9DF4;" d="M1017.282,1423.124c-20.856-18.46-35.566-54.638-48.025-82.909
				c-1.845-4.156-3.558-8.134-5.164-11.871c7.824-8.015,20.833-22.665,41.414-49.02c12.506-16.028,18.053-36.585,19.73-57.322
				c0.563-6.839,0.695-13.69,0.527-20.411c-0.479-19.442-3.534-37.723-6.445-51.08c-2.719-12.446,4.289-24.965,16.351-29.218
				l62.832-22.138c4.875,8.099,7.763,21.791,10.087,35.22c0.862,4.995,1.653,9.955,2.431,14.566c0.431,2.516,0.97,5.774,1.593,9.535
				c2.072,12.531,5.032,30.691,7.511,45.714c2.312,13.991,4.193,25.264,4.576,26.799c1.737,7.15,3.307,13.811,4.792,20.016
				c8.698,36.273,14.566,57.681,33.099,77.674C1166.365,1332.74,1033.371,1437.367,1017.282,1423.124z"/>
		</g>
		<g>
			<path style="fill:#717CE2;" d="M1129.492,1251.005c-38.969,0.144-77.518-15.201-104.255-29.003
				c-21.766-11.224-35.71-21.418-35.71-21.418l36.238,1.007l94.36,2.6c2.312,13.991,4.193,25.264,4.576,26.799
				C1126.438,1238.14,1128.007,1244.8,1129.492,1251.005z"/>
		</g>
		<g>
			<path style="fill:#717CE2;" d="M1112.613,1158.477l-37.422-6.552c0,0-33.424-18.676-32.681-20.317
				c0.731-1.641,10.243-14.974,10.243-14.974s36.561,16.794,55.836,17.741c0.862,4.995,1.653,9.955,2.431,14.566
				C1111.451,1151.457,1111.99,1154.716,1112.613,1158.477z"/>
		</g>
		<g>
			<g>
				<path style="fill:#F99746;" d="M1080.777,1344.279c-13.83,0-31.482,0.707-47.119-0.249c-36.697-2.245-64.407-3.123-65.924-3.881
					c0,0-4.679-2.695-5.253-6.04c-1.223-7.124-0.138-9.913-0.138-9.913c1.224,0.194,122.426,18.353,196.083-0.3l5.2,8.843
					C1141.227,1338.413,1114.558,1344.279,1080.777,1344.279z"/>
			</g>
		</g>
		<g>
			<path style="fill:#2A4E96;" d="M1061.211,1126.373l-12.315-9.739c-37.999-74.021-97.224-38.634-97.224-38.634
				c3.51-8.854,7.104-16.424,10.398-22.652c9.2-1.785,25.467-3.65,43.736,0.144
				C1051.533,1064.986,1061.211,1126.373,1061.211,1126.373z"/>
		</g>
		<g>
			<path style="fill:#2A4E96;" d="M1084.475,1079.509c-4.781,5.045-16.508,13.741-40.035,12.52l-6.792-11.585
				c0,0,23.323-0.107,35.519-12.422C1077.095,1071.531,1080.832,1075.305,1084.475,1079.509z"/>
		</g>
		<g>
			<path style="fill:#2A4E96;" d="M1037.647,1195.049c0,0-5.331,55.13-88.766,93.451c-2.241-7.451-4.217-14.746-5.955-21.897
				c19.779-9.93,58.652-31.29,76.621-71.554H1037.647z"/>
		</g>
		<g>
			<path style="fill:#1D3F77;" d="M1183.339,1345.908l84.727,16.914c0,0-18.381,50.95-37.548,57.838
				c-19.166,6.888-67.848-56.701-67.848-56.701L1183.339,1345.908z"/>
		</g>
		<g>
			<path style="fill:#F77D48;" d="M1184.596,1318.038c-0.426,0-0.86-0.075-1.281-0.237c-1.854-0.709-2.783-2.786-2.074-4.64
				l95.971-251.201c1.516-7.525,30.844-153.033,61.015-297.436c18.109-86.665,32.973-155.984,44.182-206.027
				c21.445-95.749,24.042-97.301,26.332-98.67c10.129-6.053,172.264-119.895,173.9-121.043c1.624-1.141,3.866-0.749,5.007,0.876
				c1.142,1.624,0.748,3.866-0.876,5.006c-6.59,4.627-159.226,111.798-173.77,120.978c-9.788,17.969-82.203,366.538-128.804,598.029
				c-0.04,0.195-0.096,0.388-0.167,0.573l-96.077,251.48C1187.408,1317.158,1186.042,1318.038,1184.596,1318.038z"/>
		</g>
		<g>
			<path style="fill:#FFB27D;" d="M1267.654,1051.697c0,0,2.144-33.892,4.928-38.206c2.783-4.315,16.254-16.962,17.643-16.474
				c0,0,0.663,1.204-0.733,5.765c-0.907,2.964-2.37,7.51-0.973,7.537c1.396,0.025,9.584-15.323,9.584-15.323
				c5.341,2.553,11.902,21.497,5.989,33.741c-5.915,12.245-14.766,11.623-17.459,31.184
				C1283.973,1079.231,1267.654,1051.697,1267.654,1051.697z"/>
		</g>
		<g>
			<path style="fill:#FFB27D;" d="M1267.654,1051.697c0,0-79.754,100.923-102.559,106.779
				c-32.009,8.223-145.693-62.065-145.693-62.065s-17.009-19.94-43.832-3.837c-23.308,13.993-28.819,45.979-28.819,45.979
				s-3.145,31.124,14.726,46.166c39.609,33.342,173.606,52.658,221.923,37.883c73.713-22.54,103.232-162.681,103.232-162.681
				s0.388-8.423-9.7-16.319C1270.178,1038.315,1267.654,1051.697,1267.654,1051.697z"/>
		</g>
		<g>
			<path style="fill:#2A4E96;" d="M1029.137,1434.219c0,0,67.412,62.391,123.116,89.803c0,0,81.725-13.188,94.637-106.955
				l-91.042-62.873L1029.137,1434.219z"/>
		</g>
		<g>
			<path style="fill:#F99746;" d="M1158.426,1323.896c0,0-53.157,64.54-148.805,91.1c0,0,12.305,25.283,31.711,32.561
				c0,0,109.286-29.902,142.007-101.648L1158.426,1323.896z"/>
		</g>
		<g>
			<g>
				<path style="fill:#1D3F77;" d="M1190.971,1325.444c-0.012-0.335-0.049-0.671-0.108-1.006l-0.983-5.45
					c-0.492-2.779-2.263-5.044-4.636-6.242c-0.611-0.311-1.258-0.551-1.941-0.719c-0.862-0.203-1.76-0.275-2.67-0.215l-6.038,0.419
					c-3.127,0.216-5.93,1.965-7.499,4.684l-5.595,9.702l-0.3,0.528l-0.43,0.743l-0.659,1.138l1.617,1.569l1.461,1.413l0.013,0.013
					l12.362,12.002l2.768-2.539l9.847-9.068C1190.131,1330.596,1191.15,1328.068,1190.971,1325.444z M1186.873,1327.146
					c-0.203,0.898-0.683,1.713-1.389,2.36l-9.835,9.068l-10.554-10.242l5.439-9.464c0.911-1.546,2.527-2.563,4.325-2.684l6.05-0.433
					c2.455-0.179,4.636,1.522,5.066,3.942l0.982,5.451C1187.078,1325.828,1187.065,1326.511,1186.873,1327.146z"/>
			</g>
		</g>
		<g>
			<path style="fill:#8C9DF4;" d="M1050.828,1109.997c0,0-39.532-31.945-66.685-27.952c-27.154,3.993-47.917,51.512-43.525,71.876
				c4.393,20.366,22.376,45.313,45.521,52.31C986.14,1206.23,1046.038,1173.088,1050.828,1109.997z"/>
		</g>
		<g>
			<path style="fill:#2C3A64;" d="M1483.371,1600.691c0,0,31.662,32.391,40.724,28.425c9.063-3.967,37.713-33.735,60.411-69.297
				c5.99-9.384-15.022-17.069-28.949-4.991s-48.41,13.676-48.41,13.676C1510.311,1595.535,1483.371,1600.691,1483.371,1600.691z"/>
		</g>
	</g>
	<g>
		<path style="fill:#8CBC80;" d="M1466.71,386.807c8.386,13.417-3.019,36.776-59.011,37.375
			c-55.99,0.599-141.199-1.917-124.954,7.128c16.255,9.044,67.539,8.05,69.155,21.719c-78.883-7.775-141.667-15.465-155.659-21.719
			c-42.407-18.939,137.271-49.63,285.718-57.213c6.35-0.324,14.508-0.623,24.307-0.887
			C1488.428,374.348,1460.96,377.606,1466.71,386.807z"/>
	</g>
	<g>
		<g>
			<g>
				<path style="fill:#A8D29F;" d="M1301.106,346.672c3.924,1.59,17.951,0.303,18.405-0.817c0.453-1.121-8.72-11.808-12.646-13.399
					c-3.925-1.591-8.396,0.302-9.989,4.228C1295.287,340.609,1297.18,345.081,1301.106,346.672z"/>
			</g>
			<g>
				<path style="fill:#A8D29F;" d="M1336.487,353.367c-2.204,3.617-3.199,17.667-2.167,18.296
					c1.034,0.629,13.063-6.698,15.266-10.315c2.204-3.617,1.059-8.335-2.558-10.54
					C1343.41,348.604,1338.691,349.75,1336.487,353.367z"/>
			</g>
			<g>
				<path style="fill:#A8D29F;" d="M1317.584,380.861c4.035,1.288,17.921-1.063,18.29-2.214c0.367-1.152-9.593-11.111-13.627-12.398
					c-4.036-1.288-8.35,0.94-9.637,4.975C1311.322,375.259,1313.549,379.574,1317.584,380.861z"/>
			</g>
			<g>
				<g>
					<path style="fill:#A8D29F;" d="M1338.012,394.458c-0.014-0.319-1.566-32.117-18.976-48.534l0.371-0.393
						c17.57,16.569,19.131,48.583,19.145,48.904L1338.012,394.458z"/>
				</g>
			</g>
		</g>
		<g>
			<g>
				<path style="fill:#A8D29F;" d="M1396.128,347.358c-2.446,1.623-12.146,2.69-12.609,1.993c-0.464-0.698,4.286-9.224,6.73-10.847
					c2.446-1.623,5.743-0.958,7.366,1.488C1399.239,342.436,1398.572,345.734,1396.128,347.358z"/>
			</g>
			<g>
				<path style="fill:#A8D29F;" d="M1373.031,356.8c1.998,2.151,4.618,11.552,4.004,12.122c-0.613,0.57-9.794-2.74-11.793-4.891
					c-1.996-2.15-1.87-5.513,0.279-7.51C1367.671,354.524,1371.035,354.649,1373.031,356.8z"/>
			</g>
			<g>
				<path style="fill:#A8D29F;" d="M1389.671,372.851c-2.562,1.433-12.315,1.759-12.724,1.028c-0.41-0.731,4.975-8.871,7.536-10.304
					c2.562-1.433,5.8-0.518,7.232,2.044C1393.147,368.181,1392.232,371.418,1389.671,372.851z"/>
			</g>
			<g>
				<g>
					<path style="fill:#A8D29F;" d="M1377.684,384.91c-0.035-0.219-3.382-22.022,6.166-35.579l-0.305-0.215
						c-9.636,13.682-6.266,35.633-6.231,35.853L1377.684,384.91z"/>
				</g>
			</g>
		</g>
		<g>
			<g>
				<g>
					<path style="fill:#A8D29F;" d="M1360.445,392.605l-1.107-0.177c-4.364-56.447-21.6-96.955-21.842-97.505l1.008-0.435
						C1338.745,295.045,1356.109,335.818,1360.445,392.605z"/>
				</g>
			</g>
			<g>
				<path style="fill:#FFFFFF;" d="M1325.8,289.242c2.126,2.408,12.081,6.282,12.768,5.675c0.688-0.607-1.92-10.964-4.046-13.373
					c-2.125-2.408-5.801-2.638-8.209-0.512C1323.904,283.159,1323.675,286.834,1325.8,289.242z"/>
			</g>
			<g>
				<path style="fill:#FFFFFF;" d="M1341.055,280.847c-1.919,2.576-3.662,13.113-2.927,13.661c0.734,0.548,10.334-4.135,12.254-6.71
					c1.919-2.575,1.388-6.219-1.188-8.139C1346.618,277.74,1342.975,278.272,1341.055,280.847z"/>
			</g>
			<g>
				<path style="fill:#FFFFFF;" d="M1352.505,292.051c-3.098-0.844-13.544,1.387-13.786,2.272c-0.24,0.884,7.629,8.106,10.727,8.951
					c3.1,0.845,6.297-0.983,7.141-4.082C1357.432,296.093,1355.604,292.896,1352.505,292.051z"/>
			</g>
			<g>
				<path style="fill:#FFFFFF;" d="M1345.447,306.022c-0.309-3.197-6.098-12.173-7.011-12.085
					c-0.913,0.088-4.875,10.007-4.566,13.204c0.309,3.197,3.152,5.539,6.349,5.229
					C1343.416,312.061,1345.757,309.219,1345.447,306.022z"/>
			</g>
			<g>
				<path style="fill:#FFFFFF;" d="M1329.604,305.335c2.844-1.493,8.971-10.243,8.545-11.055
					c-0.427-0.811-11.107-0.737-13.951,0.756c-2.844,1.493-3.94,5.009-2.446,7.853
					C1323.244,305.732,1326.76,306.828,1329.604,305.335z"/>
			</g>
			<g>
				<path style="fill:#F77D48;" d="M1336.256,293.978c0.167-1.044,1.148-1.756,2.193-1.59c1.045,0.166,1.756,1.148,1.59,2.192
					c-0.166,1.045-1.148,1.757-2.192,1.59C1336.802,296.005,1336.09,295.023,1336.256,293.978z"/>
			</g>
			<g>
				<path style="fill:#A8D29F;" d="M1360.129,334.892c-3.16,3.887-6.572,20.191-5.463,21.094c1.109,0.902,16.377-5.762,19.537-9.648
					c3.16-3.886,2.573-9.599-1.314-12.76C1369.001,330.417,1363.289,331.005,1360.129,334.892z"/>
			</g>
		</g>
		<g>
			<g>
				<path style="fill:#A8D29F;" d="M1271.293,345.651c0.223,0.335,10.328,17.419,19.82,44.888c-0.391-0.112-0.726-0.167-1.117-0.279
					c-9.379-27.023-19.262-43.772-19.484-44.107L1271.293,345.651z"/>
			</g>
		</g>
		<g>
			<path style="fill:#FFFFFF;" d="M1259.654,342.533c2.128,1.852,11.239,4.078,11.768,3.47c0.528-0.607-2.935-9.324-5.063-11.175
				c-2.127-1.852-5.354-1.628-7.205,0.5C1257.303,337.456,1257.526,340.681,1259.654,342.533z"/>
		</g>
		<g>
			<path style="fill:#FFFFFF;" d="M1271.966,333.468c-1.375,2.463-1.678,11.837-0.976,12.23c0.704,0.392,8.521-4.789,9.896-7.252
				c1.374-2.463,0.493-5.574-1.972-6.949C1276.452,330.123,1273.342,331.005,1271.966,333.468z"/>
		</g>
		<g>
			<path style="fill:#FFFFFF;" d="M1283.225,341.904c-2.795-0.379-11.632,2.766-11.74,3.565c-0.107,0.797,7.575,6.179,10.37,6.557
				c2.795,0.378,5.368-1.581,5.746-4.376C1287.979,344.855,1286.019,342.282,1283.225,341.904z"/>
		</g>
		<g>
			<path style="fill:#FFFFFF;" d="M1278.689,354.878c-0.637-2.748-6.71-9.895-7.495-9.713c-0.784,0.182-3.092,9.273-2.455,12.02
				c0.638,2.748,3.382,4.459,6.129,3.821C1277.615,360.37,1279.327,357.626,1278.689,354.878z"/>
		</g>
		<g>
			<path style="fill:#FFFFFF;" d="M1264.817,356.104c2.304-1.627,6.63-9.95,6.165-10.607c-0.465-0.657-9.754,0.637-12.058,2.264
				c-2.303,1.628-2.852,4.814-1.226,7.118C1259.327,357.183,1262.514,357.731,1264.817,356.104z"/>
		</g>
		<g>
			<path style="fill:#F77D48;" d="M1269.301,345.453c0.025-0.929,0.797-1.662,1.727-1.637c0.928,0.024,1.66,0.797,1.636,1.726
				c-0.024,0.928-0.796,1.661-1.726,1.636C1270.01,347.154,1269.277,346.381,1269.301,345.453z"/>
		</g>
		<g>
			<path style="fill:#A8D29F;" d="M1288.211,364.06c-1.773,2.884-2.614,14.112-1.792,14.618c0.824,0.506,10.462-5.312,12.236-8.196
				c1.772-2.884,0.872-6.66-2.012-8.433C1293.76,360.276,1289.984,361.176,1288.211,364.06z"/>
		</g>
		<g>
			<g>
				<path style="fill:#A8D29F;" d="M1421.106,393.478l1.211-0.193c4.769-61.695,23.608-105.968,23.872-106.57l-1.102-0.475
					C1444.824,286.849,1425.847,331.413,1421.106,393.478z"/>
			</g>
		</g>
		<g>
			<path style="fill:#FFFFFF;" d="M1458.971,280.506c-2.323,2.632-13.201,6.866-13.953,6.203c-0.752-0.663,2.1-11.983,4.422-14.616
				c2.324-2.632,6.34-2.883,8.973-0.559C1461.043,273.857,1461.295,277.874,1458.971,280.506z"/>
		</g>
		<g>
			<path style="fill:#FFFFFF;" d="M1442.299,271.331c2.098,2.815,4.004,14.332,3.2,14.931c-0.803,0.599-11.296-4.52-13.394-7.334
				c-2.098-2.815-1.517-6.798,1.299-8.895C1436.219,267.935,1440.201,268.516,1442.299,271.331z"/>
		</g>
		<g>
			<path style="fill:#FFFFFF;" d="M1429.785,283.577c3.387-0.923,14.803,1.516,15.068,2.482c0.262,0.967-8.337,8.86-11.725,9.784
				c-3.387,0.923-6.882-1.074-7.803-4.462C1424.4,287.994,1426.399,284.5,1429.785,283.577z"/>
		</g>
		<g>
			<path style="fill:#FFFFFF;" d="M1437.498,298.846c0.337-3.494,6.666-13.305,7.663-13.208c0.998,0.096,5.33,10.937,4.992,14.431
				c-0.338,3.495-3.444,6.053-6.939,5.715C1439.719,305.447,1437.16,302.34,1437.498,298.846z"/>
		</g>
		<g>
			<path style="fill:#FFFFFF;" d="M1454.815,298.095c-3.108-1.632-9.804-11.195-9.338-12.082c0.465-0.887,12.139-0.806,15.248,0.826
				c3.108,1.632,4.304,5.474,2.673,8.583C1461.766,298.53,1457.924,299.727,1454.815,298.095z"/>
		</g>
		<g>
			<path style="fill:#F77D48;" d="M1447.544,285.683c-0.182-1.142-1.255-1.92-2.397-1.738c-1.141,0.182-1.919,1.255-1.738,2.396
				c0.183,1.142,1.255,1.92,2.398,1.738C1446.947,287.898,1447.727,286.825,1447.544,285.683z"/>
		</g>
		<g>
			<path style="fill:#A8D29F;" d="M1418.296,346.919c3.454,4.248,7.183,22.068,5.97,23.054c-1.212,0.986-17.899-6.297-21.353-10.545
				c-3.454-4.247-2.811-10.492,1.438-13.946C1408.598,342.028,1414.842,342.672,1418.296,346.919z"/>
		</g>
		<g>
			<path style="fill:#A8D29F;" d="M1438.418,350.96c-4.869,2.505-15.435,17.332-14.718,18.722
				c0.714,1.389,18.921,1.413,23.789-1.091c4.869-2.505,6.785-8.482,4.279-13.351
				C1449.263,350.372,1443.286,348.456,1438.418,350.96z"/>
		</g>
		<g>
			<path style="fill:#A8D29F;" d="M1262.354,402.264c-1.881,0-3.004-2.088-1.969-3.658c2.907-4.407,9.605-11.301,23.285-11.922
				c20.247-0.92,33.514,4.687,50.243-0.835c16.729-5.522,45.087-11.634,71.282-3.328c15.053,4.773,22.914,10.582,26.876,14.659
				c1.846,1.9,0.482,5.085-2.168,5.085H1262.354z"/>
		</g>
	</g>
	<g>
		<path style="fill:#8CBC80;" d="M2429.821,461.006c-48.493-2.743-104.22-1.965-141.858,19.059
			c-75.41,42.108-157.038-3.007-157.038-3.007s-0.563-0.707-1.628-1.964c-10.926-12.866-74.643-83.747-132.012-58.148
			c-23.096,10.302-44.767,15.274-64.545,16.723c-15.01,1.102-28.918,0.18-41.532-2c-16.148-2.779-30.176-7.583-41.651-12.77
			c-6.014-2.719-11.5-5.307-16.783-7.703c-23.108-10.47-42.479-17.406-86.347-16.735c-46.863,0.719-56.603-18.352-58.352-23.347
			c81.819-0.383,179.941-0.443,283.251-0.324h2.587c22.761,0.025,45.761,0.072,68.893,0.108c3.714,0.012,7.428,0.024,11.142,0.024
			c29.721,0.06,59.609,0.144,89.438,0.228c94.767,0.276,188.817,0.647,274.109,1.042
			C2423.112,400.092,2427.066,429.764,2429.821,461.006z"/>
	</g>
	<g>
		<g>
			<path style="fill:#A8D29F;" d="M2196.708,328.661c0.03,0.028,0.058,0.058,0.086,0.086c-0.394-1.882-8.884-11.645-12.626-13.162
				c-3.927-1.591-8.397,0.302-9.988,4.228c-1.592,3.926,0.303,8.397,4.228,9.988c3.646,1.478,15.997,0.473,18.104-0.576
				c-0.06-0.056-0.113-0.117-0.173-0.172L2196.708,328.661z"/>
		</g>
		<g>
			<path style="fill:#A8D29F;" d="M2211.623,354.793c1.032,0.629,13.062-6.698,15.266-10.315c2.203-3.617,1.058-8.336-2.56-10.54
				c-3.616-2.204-8.335-1.059-10.54,2.559c-1.895,3.11-2.895,13.924-2.481,17.298c0.106,0.332,0.21,0.663,0.311,0.993
				C2211.619,354.788,2211.621,354.792,2211.623,354.793z"/>
		</g>
		<g>
			<path style="fill:#A8D29F;" d="M2199.549,349.378c-4.035-1.288-8.35,0.94-9.637,4.975c-1.288,4.035,0.939,8.35,4.975,9.638
				c3.804,1.214,16.36-0.806,18.093-2.006c-0.095-0.421-0.192-0.843-0.297-1.273C2210.68,357.827,2202.981,350.474,2199.549,349.378
				z"/>
		</g>
		<g>
			<path style="fill:#A8D29F;" d="M2211.618,354.787c-0.101-0.33-0.204-0.661-0.311-0.993c-2.802-8.762-7.302-18.204-14.514-25.047
				c-0.028-0.028-0.056-0.059-0.086-0.086l-0.37,0.393c0.06,0.056,0.113,0.116,0.173,0.172c8.986,8.581,13.708,21.259,16.172,31.486
				c0.104,0.43,0.202,0.853,0.297,1.273c0.493,2.164,0.89,4.207,1.197,6.049c0.173-0.053,0.347-0.106,0.52-0.159
				C2214.063,364.124,2213.09,359.577,2211.618,354.787z"/>
		</g>
		<g>
			<path style="fill:#A8D29F;" d="M2261.152,332.461c-0.031,0.045-0.06,0.093-0.092,0.139c1.564,0.423,10.097-0.604,12.369-2.112
				c2.445-1.624,3.111-4.921,1.488-7.367c-1.623-2.445-4.921-3.111-7.366-1.488c-2.331,1.547-6.744,9.351-6.752,10.683
				c0.017-0.023,0.031-0.047,0.046-0.07L2261.152,332.461z"/>
		</g>
		<g>
			<path style="fill:#A8D29F;" d="M2250.334,339.929c-1.997-2.151-5.359-2.275-7.51-0.279c-2.151,1.997-2.277,5.359-0.279,7.51
				c1.997,2.151,11.178,5.46,11.792,4.891c0.001-0.001,0.003-0.006,0.003-0.008c0.022-0.232,0.046-0.465,0.071-0.7
				C2254.236,349.018,2252.057,341.784,2250.334,339.929z"/>
		</g>
		<g>
			<path style="fill:#A8D29F;" d="M2266.973,355.98c2.563-1.433,3.478-4.67,2.045-7.232c-1.434-2.561-4.671-3.477-7.233-2.044
				c-2.178,1.219-6.387,7.276-7.347,9.513c-0.012,0.304-0.02,0.605-0.026,0.902C2255.732,357.698,2264.555,357.334,2266.973,355.98z
				"/>
		</g>
		<g>
			<path style="fill:#A8D29F;" d="M2254.411,357.119c0.007-0.297,0.015-0.598,0.026-0.902c0.256-7.286,1.709-16.548,6.623-23.618
				c0.032-0.046,0.061-0.093,0.092-0.139l-0.307-0.215c-0.015,0.023-0.029,0.047-0.046,0.07c-3.952,5.648-5.699,12.688-6.389,19.028
				c-0.025,0.234-0.049,0.467-0.071,0.7c-0.347,3.561-0.369,6.869-0.271,9.548c0.126-0.001,0.249-0.001,0.373-0.002
				C2254.393,360.244,2254.374,358.737,2254.411,357.119z"/>
		</g>
		<g>
			<path style="fill:#A8D29F;" d="M2232.126,334.496c-3.357-17.168-7.394-31.295-10.616-41.175
				c-0.257,0.324-0.541,0.624-0.861,0.888c3.42,10.556,7.717,25.824,11.136,44.358
				C2231.695,337.797,2231.83,336.328,2232.126,334.496z"/>
		</g>
		<g>
			<path style="fill:#A8D29F;" d="M2232.999,339.118c-0.531,0.104-0.892,0.109-1.03-0.004c-0.057-0.046-0.099-0.142-0.133-0.265
				c1.393,7.577,2.633,15.696,3.607,24.267c0.359-0.056,0.717-0.114,1.08-0.167C2235.566,354.545,2234.357,346.573,2232.999,339.118
				z"/>
		</g>
		<g>
			<path style="fill:#FFFFFF;" d="M2215.32,275.502c0.034-0.386,0.084-0.815,0.144-1.269c-0.78-3.398-2.305-8.046-3.639-9.559
				c-2.126-2.408-5.803-2.637-8.21-0.512c-2.408,2.125-2.637,5.801-0.512,8.209c1.24,1.405,5.143,3.305,8.316,4.526
				c0.811,0.007,1.549,0.037,2.171,0.088C2213.781,276.152,2214.491,275.558,2215.32,275.502z"/>
		</g>
		<g>
			<path style="fill:#FFFFFF;" d="M2215.752,275.518c0.725,0.116,1.283,0.628,1.504,1.278c0.676-0.233,1.58-0.481,2.611-0.717
				c3.045-1.48,6.709-3.664,7.816-5.151c1.92-2.576,1.389-6.219-1.188-8.139c-2.574-1.919-6.219-1.387-8.139,1.188
				c-1.258,1.688-2.436,6.783-2.894,10.257c-0.06,0.454-0.109,0.882-0.144,1.269
				C2215.461,275.493,2215.605,275.495,2215.752,275.518z"/>
		</g>
		<g>
			<path style="fill:#FFFFFF;" d="M2217.343,277.711c-0.041,0.242-0.126,0.463-0.242,0.663c0.472,0.606,1.018,1.383,1.583,2.254
				c2.517,2.375,6.174,5.26,8.065,5.775c3.099,0.845,6.296-0.983,7.14-4.082c0.845-3.098-0.982-6.295-4.082-7.14
				c-1.9-0.518-6.561,0.122-9.939,0.898c-1.031,0.236-1.936,0.484-2.611,0.717C2217.354,277.082,2217.393,277.392,2217.343,277.711z
				"/>
		</g>
		<g>
			<path style="fill:#FFFFFF;" d="M2221.51,293.32c0.903-1.138,1.392-2.608,1.24-4.169c-0.18-1.861-2.215-5.674-4.066-8.523
				c-0.565-0.871-1.111-1.648-1.583-2.254c-0.388,0.662-1.148,1.055-1.951,0.927c-0.144-0.023-0.279-0.064-0.407-0.115
				c-0.315,0.546-0.717,1.179-1.177,1.857c-1.282,3.162-2.575,7.35-2.394,9.228c0.309,3.197,3.151,5.538,6.349,5.229
				c1.193-0.115,2.266-0.584,3.128-1.292C2220.969,293.945,2221.253,293.645,2221.51,293.32z"/>
		</g>
		<g>
			<path style="fill:#FFFFFF;" d="M2213.56,277.108c0.006-0.043,0.023-0.081,0.031-0.122c-0.622-0.051-1.36-0.08-2.171-0.088
				c-3.47-0.03-8.172,0.35-9.921,1.267c-2.844,1.493-3.938,5.009-2.446,7.853c1.494,2.844,5.01,3.939,7.854,2.446
				c1.742-0.915,4.715-4.553,6.659-7.421c0.46-0.678,0.861-1.311,1.177-1.857C2213.928,278.861,2213.415,278.01,2213.56,277.108z"/>
		</g>
		<g>
			<path style="fill:#F77D48;" d="M2217.256,276.796c-0.221-0.65-0.779-1.163-1.504-1.278c-0.146-0.023-0.291-0.025-0.432-0.016
				c-0.829,0.056-1.539,0.65-1.729,1.483c-0.008,0.041-0.025,0.08-0.031,0.122c-0.145,0.902,0.368,1.753,1.183,2.078
				c0.128,0.052,0.264,0.093,0.407,0.115c0.803,0.128,1.563-0.265,1.951-0.927c0.116-0.2,0.201-0.421,0.242-0.663
				C2217.393,277.392,2217.354,277.082,2217.256,276.796z"/>
		</g>
		<g>
			<path style="fill:#A8D29F;" d="M2232.999,339.118c3.71-0.726,15.741-6.251,18.507-9.652c3.16-3.886,2.572-9.599-1.314-12.76
				c-3.887-3.161-9.6-2.572-12.761,1.315c-2.157,2.654-4.433,11.098-5.305,16.474c-0.296,1.832-0.431,3.302-0.342,4.07
				c0.013,0.11,0.03,0.204,0.052,0.284c0.034,0.123,0.076,0.219,0.133,0.265C2232.107,339.228,2232.468,339.222,2232.999,339.118z"
				/>
		</g>
		<g>
			<path style="fill:#A8D29F;" d="M2164.052,361.811c-0.149,0.027-0.269,0.034-0.329-0.003c-0.175-0.107-0.271-0.711-0.304-1.596
				c-2.897-7.301-5.678-13.502-8.033-18.419c-0.183,0.303-0.391,0.591-0.633,0.851c3.232,6.795,7.241,15.982,11.245,27.079
				c0.345,0,0.687,0.003,1.023,0.007C2166.029,366.974,2165.035,364.329,2164.052,361.811z"/>
		</g>
		<g>
			<path style="fill:#FFFFFF;" d="M2147.952,326.98c-0.015-0.339-0.021-0.718-0.021-1.12c-1.07-2.869-2.933-6.74-4.27-7.903
				c-2.129-1.852-5.354-1.628-7.205,0.5c-1.852,2.128-1.628,5.354,0.5,7.205c1.241,1.081,4.855,2.285,7.761,2.983
				c0.706-0.087,1.354-0.147,1.9-0.174C2146.688,327.724,2147.236,327.125,2147.952,326.98z"/>
		</g>
		<g>
			<path style="fill:#FFFFFF;" d="M2148.33,326.945c0.645,0.018,1.188,0.399,1.455,0.94c0.563-0.281,1.323-0.601,2.191-0.926
				c2.48-1.639,5.419-3.962,6.212-5.384c1.376-2.463,0.492-5.574-1.971-6.948c-2.464-1.375-5.574-0.492-6.948,1.971
				c-0.9,1.614-1.34,6.186-1.338,9.263c0,0.401,0.006,0.78,0.021,1.12C2148.074,326.956,2148.199,326.942,2148.33,326.945z"/>
		</g>
		<g>
			<path style="fill:#FFFFFF;" d="M2149.967,328.672c-0.006,0.214-0.056,0.417-0.135,0.604c0.482,0.473,1.046,1.088,1.639,1.78
				c2.464,1.778,5.98,3.868,7.686,4.099c2.795,0.378,5.367-1.581,5.746-4.376c0.379-2.795-1.581-5.368-4.375-5.746
				c-1.715-0.232-5.697,0.862-8.551,1.926c-0.868,0.325-1.629,0.645-2.191,0.926
				C2149.904,328.123,2149.974,328.388,2149.967,328.672z"/>
		</g>
		<g>
			<path style="fill:#FFFFFF;" d="M2155.386,341.793c0.66-1.097,0.919-2.439,0.606-3.785c-0.371-1.6-2.583-4.684-4.521-6.951
				c-0.593-0.692-1.156-1.307-1.639-1.78c-0.261,0.621-0.878,1.05-1.592,1.032c-0.128-0.003-0.251-0.023-0.367-0.054
				c-0.213,0.511-0.488,1.109-0.812,1.751c-0.751,2.9-1.394,6.695-1.02,8.31c0.637,2.748,3.381,4.458,6.129,3.821
				c1.029-0.239,1.913-0.773,2.582-1.493C2154.995,342.384,2155.203,342.096,2155.386,341.793z"/>
		</g>
		<g>
			<path style="fill:#FFFFFF;" d="M2146.604,328.582c0.001-0.038,0.01-0.074,0.015-0.111c-0.547,0.028-1.194,0.087-1.9,0.174
				c-3.022,0.373-7.075,1.245-8.491,2.246c-2.303,1.627-2.852,4.814-1.226,7.118c1.629,2.304,4.815,2.853,7.118,1.225
				c1.413-0.998,3.581-4.507,4.942-7.228c0.323-0.643,0.599-1.24,0.812-1.751C2147.128,330.066,2146.582,329.383,2146.604,328.582z"
				/>
		</g>
		<g>
			<path style="fill:#F77D48;" d="M2149.785,327.885c-0.268-0.541-0.811-0.922-1.455-0.94c-0.131-0.003-0.256,0.011-0.378,0.035
				c-0.716,0.145-1.264,0.744-1.334,1.491c-0.005,0.037-0.014,0.073-0.015,0.111c-0.021,0.801,0.524,1.484,1.27,1.672
				c0.116,0.03,0.239,0.05,0.367,0.054c0.714,0.019,1.331-0.411,1.592-1.032c0.079-0.188,0.129-0.39,0.135-0.604
				C2149.974,328.388,2149.904,328.123,2149.785,327.885z"/>
		</g>
		<g>
			<path style="fill:#A8D29F;" d="M2164.052,361.811c1.879-0.345,10.263-5.527,11.905-8.2c1.773-2.884,0.873-6.66-2.012-8.433
				c-2.884-1.774-6.659-0.872-8.433,2.012c-1.398,2.274-2.212,9.72-2.094,13.022c0.033,0.885,0.129,1.489,0.304,1.596
				C2163.783,361.845,2163.902,361.839,2164.052,361.811z"/>
		</g>
		<g>
			<path style="fill:#A8D29F;" d="M2316.156,286.532c-4.562,13.986-10.623,35.744-14.619,62.439c0.09,0.625,0.154,1.191,0.2,1.701
				c0.276-0.515,0.617-1.099,1.014-1.735c3.929-26.135,9.841-47.52,14.349-61.435
				C2316.749,287.215,2316.438,286.886,2316.156,286.532z"/>
		</g>
		<g>
			<path style="fill:#A8D29F;" d="M2300.937,353.179c-0.859,6.197-1.598,12.643-2.181,19.302c0.39,0.217,0.772,0.433,1.143,0.649
				c0.591-6.851,1.345-13.481,2.229-19.844c-0.237-0.05-0.438-0.104-0.604-0.162C2301.41,353.187,2301.211,353.204,2300.937,353.179
				z"/>
		</g>
		<g>
			<path style="fill:#FFFFFF;" d="M2324.811,268.678c0.68-0.055,1.487-0.087,2.373-0.095c3.471-1.335,7.734-3.411,9.09-4.947
				c2.323-2.632,2.072-6.649-0.559-8.972c-2.633-2.323-6.649-2.073-8.973,0.559c-1.459,1.654-3.127,6.734-3.978,10.449
				c0.065,0.495,0.12,0.964,0.155,1.385C2323.828,267.118,2324.604,267.768,2324.811,268.678z"/>
		</g>
		<g>
			<path style="fill:#FFFFFF;" d="M2322.45,267.075c0.159-0.026,0.316-0.028,0.47-0.018c-0.035-0.421-0.09-0.891-0.155-1.385
				c-0.501-3.797-1.788-9.367-3.163-11.212c-2.098-2.815-6.08-3.396-8.896-1.298c-2.815,2.098-3.396,6.081-1.298,8.895
				c1.211,1.625,5.216,4.014,8.543,5.631c1.127,0.258,2.116,0.529,2.855,0.784C2321.048,267.761,2321.656,267.201,2322.45,267.075z"
				/>
		</g>
		<g>
			<path style="fill:#FFFFFF;" d="M2320.712,269.471c-0.056-0.348-0.013-0.686,0.095-0.999c-0.739-0.254-1.729-0.525-2.855-0.784
				c-3.692-0.848-8.785-1.548-10.862-0.981c-3.388,0.923-5.386,4.417-4.463,7.804c0.923,3.387,4.417,5.385,7.804,4.461
				c2.066-0.563,6.064-3.716,8.814-6.312c0.619-0.951,1.215-1.802,1.731-2.464C2320.848,269.978,2320.754,269.736,2320.712,269.471z
				"/>
		</g>
		<g>
			<path style="fill:#FFFFFF;" d="M2323.108,271.21c-0.877,0.14-1.71-0.291-2.133-1.013c-0.517,0.662-1.112,1.513-1.731,2.464
				c-2.021,3.115-4.248,7.281-4.443,9.315c-0.165,1.706,0.367,3.313,1.355,4.557c0.281,0.354,0.593,0.683,0.943,0.97
				c0.94,0.773,2.113,1.286,3.417,1.412c3.493,0.338,6.6-2.221,6.938-5.716c0.198-2.052-1.215-6.63-2.616-10.085
				c-0.503-0.742-0.94-1.433-1.284-2.029C2323.413,271.139,2323.266,271.185,2323.108,271.21z"/>
		</g>
		<g>
			<path style="fill:#FFFFFF;" d="M2338.027,269.967c-1.912-1.002-7.054-1.417-10.844-1.384c-0.886,0.008-1.693,0.04-2.373,0.095
				c0.011,0.045,0.028,0.088,0.037,0.134c0.156,0.985-0.404,1.917-1.293,2.271c0.344,0.596,0.781,1.288,1.284,2.029
				c2.126,3.135,5.373,7.111,7.278,8.111c3.107,1.632,6.951,0.435,8.583-2.673S2341.135,271.6,2338.027,269.967z"/>
		</g>
		<g>
			<path style="fill:#F77D48;" d="M2322.92,267.057c-0.153-0.01-0.311-0.008-0.47,0.018c-0.794,0.126-1.402,0.686-1.644,1.397
				c-0.107,0.313-0.15,0.651-0.095,0.999c0.042,0.265,0.136,0.507,0.264,0.725c0.423,0.723,1.256,1.153,2.133,1.013
				c0.157-0.025,0.305-0.07,0.446-0.126c0.889-0.354,1.449-1.286,1.293-2.271c-0.009-0.046-0.026-0.089-0.037-0.134
				C2324.604,267.768,2323.828,267.118,2322.92,267.057z"/>
		</g>
		<g>
			<path style="fill:#A8D29F;" d="M2301.522,353.124c-0.276-0.095-0.463-0.198-0.521-0.312c-0.14-0.27,0.15-1.048,0.736-2.139
				c-0.046-0.51-0.11-1.077-0.2-1.701c-0.826-5.783-3.453-15.866-5.938-18.922c-3.455-4.248-9.699-4.891-13.947-1.437
				c-4.248,3.455-4.892,9.698-1.438,13.946c3.162,3.888,17.398,10.314,20.722,10.621
				C2301.211,353.204,2301.41,353.187,2301.522,353.124z"/>
		</g>
		<g>
			<path style="fill:#A8D29F;" d="M2301.001,352.811c0.059,0.114,0.245,0.217,0.521,0.312c0.167,0.058,0.367,0.112,0.604,0.162
				c4.154,0.877,18.436,0.61,22.664-1.565c4.867-2.505,6.783-8.482,4.278-13.35c-2.504-4.869-8.481-6.785-13.35-4.28
				c-3.479,1.79-9.866,9.873-12.969,14.847c-0.396,0.636-0.737,1.22-1.014,1.735
				C2301.151,351.764,2300.861,352.542,2301.001,352.811z"/>
		</g>
		<g>
			<path style="fill:#A8D29F;" d="M2282.495,365.649c-9.285-2.944-18.839-4.07-28.053-4.06c-0.124,0-0.247,0.001-0.373,0.002
				c-6.059,0.026-11.967,0.539-17.546,1.358c-0.363,0.053-0.721,0.111-1.08,0.167c-7.736,1.198-14.811,2.955-20.747,4.759
				c-0.173,0.053-0.347,0.106-0.52,0.159c-1.021,0.314-2.013,0.629-2.964,0.943c-14.998,4.951-27.229,0.968-44.191,0.752
				c-0.337-0.003-0.679-0.006-1.023-0.007c-1.634-0.006-3.297,0.012-5.026,0.09c-13.681,0.622-20.379,7.516-23.285,11.922
				c-1.034,1.571,0.087,3.659,1.968,3.659h167.55c2.65,0,4.016-3.185,2.168-5.085c-2.01-2.068-5.028-4.581-9.474-7.178
				c-0.37-0.216-0.753-0.433-1.143-0.649C2294.592,370.162,2289.279,367.801,2282.495,365.649z"/>
		</g>
	</g>
	<g>
		<g>
			<polygon style="fill:#709EE8;" points="1994.635,540.846 2028.346,510.623 2071.354,505.973 2105.064,518.76 2115.525,546.657 
				2050.432,559.443 			"/>
		</g>
		<g>
			<polygon style="fill:#5885D7;" points="2028.346,510.623 2039.583,532.321 2058.568,541.232 2050.432,559.443 2013.234,555.957 
				1994.635,540.846 			"/>
		</g>
	</g>
	<g>
		<g>
			<polygon style="fill:#709EE8;" points="1817.374,425.007 1841.51,403.367 1872.307,400.038 1896.444,409.193 1903.936,429.169 
				1857.325,438.324 			"/>
		</g>
		<g>
			<polygon style="fill:#5885D7;" points="1841.51,403.367 1849.557,418.903 1863.151,425.285 1857.325,438.324 1830.691,435.827 
				1817.374,425.007 			"/>
		</g>
	</g>
	<g>
		<g>
			<polygon style="fill:#709EE8;" points="2201.279,403.997 2173.555,398.907 2156.143,379.715 2089.123,334.735 2040.671,353.679 
				1998.773,349.895 1972.741,368.48 1913.977,464.252 1949.939,502.728 2086.789,493.012 2179.483,453.926 2208.513,435.58 			"/>
		</g>
		<g>
			<polygon style="fill:#5885D7;" points="1972.742,368.48 1997.282,416.951 1982.494,451.077 1995.055,477.057 1949.939,502.728 
				1913.978,464.252 			"/>
		</g>
		<g>
			<polygon style="fill:#406DC6;" points="2086.789,493.012 1995.055,477.057 1949.939,502.728 			"/>
		</g>
		<g>
			<polygon style="fill:#94BAF7;" points="2040.671,353.679 2044.075,381.08 2089.123,334.735 			"/>
		</g>
	</g>
	<g>
		<path style="fill:#8CBC80;" d="M1871.234,372.803h52.737c2.826-2.397-1.956-7.841-6.952-8.207c-2.17-0.164-4.914,0.29-8.049,0.953
			c-0.725-9.639-4.87-52.972-20.489-51.23c-17.563,1.949,0,19.082,4.964,29.227c3.678,7.513,7.558,18.288,9.33,23.373
			c-1.425,0.309-2.901,0.612-4.409,0.89c-2.327-7.147-10.989-31.189-22.003-29.788c-12.933,1.64-7.734,11.279,1.432,17.001
			c6.725,4.208,14.982,10.188,18.906,13.077c-3.325,0.542-6.795,0.908-10.314,0.826
			C1877.354,368.708,1872.943,371.371,1871.234,372.803z"/>
	</g>
	<g>
		<path style="fill:#A8D29F;" d="M2224.908,464.665h42.844c2.296-2.38-1.589-7.786-5.646-8.149c-1.765-0.163-3.994,0.288-6.54,0.946
			c-0.589-9.571-3.957-52.597-16.646-50.868c-14.268,1.935,0,18.948,4.033,29.02c2.988,7.46,6.139,18.159,7.58,23.207
			c-1.159,0.307-2.359,0.608-3.583,0.883c-1.892-7.097-8.928-30.968-17.876-29.577c-10.505,1.628-6.282,11.199,1.164,16.881
			c5.464,4.178,12.171,10.116,15.359,12.984c-2.701,0.539-5.52,0.903-8.379,0.822C2229.88,460.6,2226.297,463.243,2224.908,464.665z
			"/>
	</g>
</g>
</svg>
